<svg xmlns="http://www.w3.org/2000/svg" viewBox="0 0 960 540" role="img" aria-labelledby="title desc">
  <title id="title">Схема Metacode Studio</title>
  <desc id="desc">Диаграмма отображает редактор blueprint-а, список модулей и визуализацию связей.</desc>
  <rect width="960" height="540" fill="#0b0d14"/>
  <rect x="40" y="40" width="280" height="460" rx="18" fill="#111827" stroke="#1f2937" stroke-width="2"/>
  <text x="65" y="85" fill="#f9fafb" font-family="'Fira Sans', 'Segoe UI', sans-serif" font-size="22">Blueprint</text>
  <rect x="60" y="110" width="240" height="80" rx="12" fill="#1f2937" stroke="#374151" stroke-width="2"/>
  <text x="80" y="150" fill="#d1d5db" font-family="'Fira Sans', 'Segoe UI', sans-serif" font-size="16">Цель: резонанс</text>
  <rect x="60" y="210" width="240" height="80" rx="12" fill="#1f2937" stroke="#374151" stroke-width="2"/>
  <text x="80" y="250" fill="#d1d5db" font-family="'Fira Sans', 'Segoe UI', sans-serif" font-size="16">Теги: ясность, эмпатия</text>
  <rect x="60" y="310" width="240" height="80" rx="12" fill="#0f172a" stroke="#2563eb" stroke-width="2"/>
  <text x="80" y="350" fill="#bfdbfe" font-family="'Fira Sans', 'Segoe UI', sans-serif" font-size="16">Модули: огранка, память</text>
  <rect x="60" y="410" width="240" height="70" rx="12" fill="#166534" stroke="#22c55e" stroke-width="2"/>
  <text x="80" y="452" fill="#dcfce7" font-family="'Fira Sans', 'Segoe UI', sans-serif" font-size="16">Сохранить</text>
  <rect x="360" y="40" width="560" height="300" rx="18" fill="#111827" stroke="#1f2937" stroke-width="2"/>
  <text x="380" y="85" fill="#f9fafb" font-family="'Fira Sans', 'Segoe UI', sans-serif" font-size="22">Визуализация</text>
  <circle cx="480" cy="190" r="58" fill="#0f172a" stroke="#2563eb" stroke-width="4"/>
  <text x="450" y="195" fill="#bfdbfe" font-family="'Fira Sans', 'Segoe UI', sans-serif" font-size="16">Ядро</text>
  <circle cx="620" cy="160" r="40" fill="#1f2937" stroke="#22d3ee" stroke-width="3"/>
  <text x="597" y="165" fill="#bae6fd" font-family="'Fira Sans', 'Segoe UI', sans-serif" font-size="14">Фокус</text>
  <circle cx="400" cy="120" r="32" fill="#1f2937" stroke="#facc15" stroke-width="3"/>
  <text x="377" y="125" fill="#fef3c7" font-family="'Fira Sans', 'Segoe UI', sans-serif" font-size="14">Риск</text>
  <circle cx="540" cy="260" r="36" fill="#1f2937" stroke="#34d399" stroke-width="3"/>
  <text x="520" y="265" fill="#bbf7d0" font-family="'Fira Sans', 'Segoe UI', sans-serif" font-size="14">Эмпатия</text>
  <line x1="480" y1="190" x2="620" y2="160" stroke="#2563eb" stroke-width="3" stroke-linecap="round"/>
  <line x1="480" y1="190" x2="400" y2="120" stroke="#f59e0b" stroke-width="3" stroke-linecap="round"/>
  <line x1="480" y1="190" x2="540" y2="260" stroke="#22c55e" stroke-width="3" stroke-linecap="round"/>
  <rect x="360" y="360" width="560" height="140" rx="18" fill="#111827" stroke="#1f2937" stroke-width="2"/>
  <text x="380" y="400" fill="#f9fafb" font-family="'Fira Sans', 'Segoe UI', sans-serif" font-size="22">История</text>
  <rect x="380" y="420" width="220" height="60" rx="12" fill="#1f2937" stroke="#374151" stroke-width="2"/>
  <text x="400" y="455" fill="#d1d5db" font-family="'Fira Sans', 'Segoe UI', sans-serif" font-size="16">Blueprint #27</text>
  <rect x="620" y="420" width="220" height="60" rx="12" fill="#1f2937" stroke="#374151" stroke-width="2"/>
  <text x="640" y="455" fill="#d1d5db" font-family="'Fira Sans', 'Segoe UI', sans-serif" font-size="16">AKSI Sync</text>
</svg>
