<svg xmlns="http://www.w3.org/2000/svg" viewBox="0 0 960 540" role="img" aria-labelledby="title desc">
  <title id="title">Схема интерфейса чата Milana</title>
  <desc id="desc">Диаграмма показывает боковую панель, область истории, поле ввода и индикаторы состояния.</desc>
  <rect width="960" height="540" fill="#0b0d14"/>
  <rect x="40" y="40" width="180" height="460" rx="12" fill="#111827" stroke="#1f2937" stroke-width="2"/>
  <text x="65" y="90" fill="#f3f4f6" font-family="'Fira Sans', 'Segoe UI', sans-serif" font-size="20">Навигация</text>
  <line x1="60" y1="110" x2="200" y2="110" stroke="#1f2937" stroke-width="2" stroke-linecap="round"/>
  <text x="65" y="150" fill="#9ca3af" font-family="'Fira Sans', 'Segoe UI', sans-serif" font-size="16">Суперчат</text>
  <text x="65" y="190" fill="#9ca3af" font-family="'Fira Sans', 'Segoe UI', sans-serif" font-size="16">Metacode</text>
  <text x="65" y="230" fill="#9ca3af" font-family="'Fira Sans', 'Segoe UI', sans-serif" font-size="16">AKSI</text>
  <rect x="240" y="40" width="460" height="360" rx="18" fill="#111827" stroke="#1f2937" stroke-width="2"/>
  <text x="260" y="80" fill="#f9fafb" font-family="'Fira Sans', 'Segoe UI', sans-serif" font-size="22">Диалог</text>
  <rect x="260" y="110" width="420" height="80" rx="12" fill="#1f2937" stroke="#374151" stroke-width="2"/>
  <text x="280" y="150" fill="#d1d5db" font-family="'Fira Sans', 'Segoe UI', sans-serif" font-size="16">Milana: готова к запуску сценария.</text>
  <rect x="260" y="210" width="420" height="80" rx="12" fill="#0f172a" stroke="#2563eb" stroke-width="2"/>
  <text x="280" y="250" fill="#bfdbfe" font-family="'Fira Sans', 'Segoe UI', sans-serif" font-size="16">Вы: активируй протокол ясности.</text>
  <rect x="240" y="420" width="460" height="80" rx="16" fill="#0f172a" stroke="#2563eb" stroke-width="2"/>
  <text x="260" y="465" fill="#e0f2fe" font-family="'Fira Sans', 'Segoe UI', sans-serif" font-size="18">Введите сообщение…</text>
  <rect x="720" y="40" width="200" height="220" rx="18" fill="#111827" stroke="#1f2937" stroke-width="2"/>
  <text x="740" y="85" fill="#f3f4f6" font-family="'Fira Sans', 'Segoe UI', sans-serif" font-size="20">Память</text>
  <rect x="740" y="110" width="160" height="40" rx="10" fill="#1f2937" stroke="#374151" stroke-width="2"/>
  <text x="755" y="137" fill="#d1d5db" font-family="'Fira Sans', 'Segoe UI', sans-serif" font-size="14">Инсайт: эмпатия ↑</text>
  <rect x="720" y="280" width="200" height="220" rx="18" fill="#111827" stroke="#1f2937" stroke-width="2"/>
  <text x="740" y="325" fill="#f3f4f6" font-family="'Fira Sans', 'Segoe UI', sans-serif" font-size="20">Индикаторы</text>
  <line x1="740" y1="345" x2="900" y2="345" stroke="#1f2937" stroke-width="2" stroke-linecap="round"/>
  <rect x="740" y="360" width="160" height="24" rx="6" fill="#1f2937" stroke="#2563eb" stroke-width="2"/>
  <rect x="740" y="394" width="120" height="24" rx="6" fill="#1f2937" stroke="#22d3ee" stroke-width="2"/>
  <rect x="740" y="428" width="100" height="24" rx="6" fill="#1f2937" stroke="#facc15" stroke-width="2"/>
</svg>
